# xmcd
#
# Track frame offsets: 
#        150
#        15595
#        30103
#        47805
#        60743
#        78115
#        91982
#        106914
#        120644
#        136394
#        154089
#
# Disc length: 2320 seconds
#
# Revision: 3
# Processed by: cddbd v1.5.2PL0 Copyright (c) Steve Scherf et al.
# Submitted via: ExactAudioCopy v1.0b1
#
DISCID=7a090e0b
DTITLE=Jake Owen - Startin' With Me
DYEAR=2006
DGENRE=Country
TTITLE0=The Bad In Me
TTITLE1=Something About A Woman
TTITLE2=Startin' With Me
TTITLE3=Yee Haw
TTITLE4=Ghosts
TTITLE5=Eight Second Ride
TTITLE6=Hard Not To Love You
TTITLE7=The Bottle And Me
TTITLE8=Places To Run
TTITLE9=Long Night With You
TTITLE10=You Can Thank Dixie
EXTD=
EXTT0=
EXTT1=
EXTT2=
EXTT3=
EXTT4=
EXTT5=
EXTT6=
EXTT7=
EXTT8=
EXTT9=
EXTT10=
PLAYORDER=
